<svg width="900" height="240" viewBox="0 0 900 240" fill="none" xmlns="http://www.w3.org/2000/svg">
<path d="M336.192 143V60.008H387.264V73.896H352.768V95.512H382.224V109.4H352.768V143H336.192ZM416.224 144.568C409.429 144.568 404.501 142.365 401.44 137.96C398.379 133.48 396.848 127.283 396.848 119.368V80.28H413.2V117.352C413.2 122.205 413.909 125.603 415.328 127.544C416.747 129.485 419.024 130.456 422.16 130.456C424.699 130.456 426.901 129.859 428.768 128.664C430.709 127.395 432.725 125.379 434.816 122.616V80.28H451.28V143H437.84L436.608 133.928H436.16C433.472 137.139 430.56 139.715 427.424 141.656C424.288 143.597 420.555 144.568 416.224 144.568ZM468.832 143V80.28H482.272L483.504 88.68H483.84C486.454 85.992 489.291 83.6773 492.352 81.736C495.414 79.72 498.998 78.712 503.104 78.712C507.584 78.712 511.168 79.6827 513.856 81.624C516.619 83.4907 518.747 86.1787 520.24 89.688C523.227 86.6267 526.288 84.0507 529.424 81.96C532.635 79.7947 536.256 78.712 540.288 78.712C547.008 78.712 551.899 80.952 554.96 85.432C558.096 89.8373 559.664 95.9973 559.664 103.912V143H543.312V105.928C543.312 101.075 542.603 97.6773 541.184 95.736C539.766 93.7947 537.563 92.824 534.576 92.824C532.784 92.824 530.88 93.4213 528.864 94.616C526.923 95.736 524.795 97.4907 522.48 99.88V143H506.016V105.928C506.016 101.075 505.307 97.6773 503.888 95.736C502.47 93.7947 500.267 92.824 497.28 92.824C495.563 92.824 493.659 93.4213 491.568 94.616C489.552 95.736 487.462 97.4907 485.296 99.88V143H468.832ZM576.786 143V80.28H593.25V143H576.786ZM585.074 70.088C582.162 70.088 579.847 69.304 578.13 67.736C576.412 66.0933 575.554 63.8907 575.554 61.128C575.554 58.44 576.412 56.2747 578.13 54.632C579.847 52.9893 582.162 52.168 585.074 52.168C587.836 52.168 590.114 52.9893 591.906 54.632C593.698 56.2747 594.594 58.44 594.594 61.128C594.594 63.8907 593.698 66.0933 591.906 67.736C590.114 69.304 587.836 70.088 585.074 70.088ZM702.926 144.568C699.268 144.568 696.02 143.784 693.182 142.216C690.42 140.573 688.254 138.333 686.686 135.496C685.193 132.659 684.446 129.448 684.446 125.864C684.446 119.219 687.321 114.067 693.07 110.408C698.82 106.675 707.966 104.136 720.51 102.792C720.436 100.701 720.062 98.872 719.39 97.304C718.718 95.6613 717.598 94.3547 716.03 93.384C714.537 92.4133 712.484 91.928 709.87 91.928C706.958 91.928 704.084 92.488 701.246 93.608C698.409 94.728 695.534 96.184 692.622 97.976L686.798 87C689.262 85.432 691.876 84.0507 694.638 82.856C697.401 81.6613 700.313 80.6907 703.374 79.944C706.436 79.1227 709.609 78.712 712.894 78.712C718.196 78.712 722.638 79.7573 726.222 81.848C729.806 83.9387 732.494 87.0373 734.286 91.144C736.078 95.2507 736.974 100.328 736.974 106.376V143H723.534L722.414 136.28H721.854C719.166 138.669 716.254 140.648 713.118 142.216C709.982 143.784 706.585 144.568 702.926 144.568ZM708.414 131.688C710.729 131.688 712.82 131.165 714.686 130.12C716.628 129 718.569 127.469 720.51 125.528V112.984C715.433 113.581 711.401 114.44 708.414 115.56C705.428 116.68 703.3 118.024 702.03 119.592C700.761 121.085 700.126 122.765 700.126 124.632C700.126 127.096 700.873 128.888 702.366 130.008C703.934 131.128 705.95 131.688 708.414 131.688ZM785.226 144.568C782.464 144.568 779.626 143.859 776.714 142.44C773.802 141.021 771.077 139.005 768.538 136.392H767.978L766.634 143H753.754V53.624H770.218V76.136L769.658 86.216C772.197 83.976 774.96 82.184 777.946 80.84C781.008 79.4213 784.069 78.712 787.13 78.712C792.282 78.712 796.688 80.056 800.346 82.744C804.08 85.3573 806.917 89.0533 808.858 93.832C810.874 98.536 811.882 104.099 811.882 110.52C811.882 117.688 810.613 123.848 808.074 129C805.536 134.077 802.213 137.96 798.106 140.648C794.074 143.261 789.781 144.568 785.226 144.568ZM781.642 131.016C784.106 131.016 786.346 130.307 788.362 128.888C790.378 127.395 791.984 125.155 793.178 122.168C794.373 119.181 794.97 115.411 794.97 110.856C794.97 106.899 794.522 103.539 793.626 100.776C792.73 97.9387 791.386 95.8107 789.594 94.392C787.802 92.9733 785.45 92.264 782.538 92.264C780.448 92.264 778.394 92.7867 776.378 93.832C774.437 94.8773 772.384 96.4827 770.218 98.648V126.312C772.16 128.104 774.101 129.336 776.042 130.008C778.058 130.68 779.925 131.016 781.642 131.016ZM844.536 144.568C837.742 144.568 832.814 142.365 829.752 137.96C826.691 133.48 825.16 127.283 825.16 119.368V80.28H841.512V117.352C841.512 122.205 842.222 125.603 843.64 127.544C845.059 129.485 847.336 130.456 850.472 130.456C853.011 130.456 855.214 129.859 857.08 128.664C859.022 127.395 861.038 125.379 863.128 122.616V80.28H879.592V143H866.152L864.92 133.928H864.472C861.784 137.139 858.872 139.715 855.736 141.656C852.6 143.597 848.867 144.568 844.536 144.568Z" fill="#EDEDED"/>
<path d="M612.145 143V60.008H628.721V96.072H629.057L656.497 60.008H674.753L649.441 92.712L679.233 143H661.089L639.585 105.704L628.721 119.704V143H612.145Z" fill="#C026D3"/>
<path d="M446.512 203.364C445.056 203.364 443.712 203.093 442.48 202.552C441.267 202.011 440.221 201.273 439.344 200.34L440.884 198.548C441.612 199.313 442.471 199.929 443.46 200.396C444.449 200.863 445.476 201.096 446.54 201.096C447.903 201.096 448.957 200.788 449.704 200.172C450.469 199.556 450.852 198.753 450.852 197.764C450.852 197.036 450.693 196.457 450.376 196.028C450.077 195.599 449.667 195.244 449.144 194.964C448.64 194.665 448.061 194.376 447.408 194.096L444.468 192.808C443.833 192.528 443.189 192.173 442.536 191.744C441.901 191.315 441.369 190.755 440.94 190.064C440.511 189.373 440.296 188.533 440.296 187.544C440.296 186.48 440.576 185.547 441.136 184.744C441.696 183.923 442.461 183.279 443.432 182.812C444.403 182.345 445.513 182.112 446.764 182.112C447.996 182.112 449.125 182.345 450.152 182.812C451.197 183.279 452.075 183.885 452.784 184.632L451.44 186.284C450.805 185.705 450.105 185.248 449.34 184.912C448.593 184.557 447.735 184.38 446.764 184.38C445.607 184.38 444.673 184.651 443.964 185.192C443.273 185.715 442.928 186.433 442.928 187.348C442.928 188.02 443.096 188.571 443.432 189C443.787 189.429 444.225 189.775 444.748 190.036C445.271 190.297 445.803 190.549 446.344 190.792L449.256 192.052C450.04 192.388 450.749 192.789 451.384 193.256C452.037 193.723 452.551 194.301 452.924 194.992C453.297 195.683 453.484 196.532 453.484 197.54C453.484 198.623 453.204 199.612 452.644 200.508C452.084 201.385 451.281 202.085 450.236 202.608C449.191 203.112 447.949 203.364 446.512 203.364ZM461.195 203.364C460.131 203.364 459.282 203.159 458.647 202.748C458.013 202.319 457.555 201.721 457.275 200.956C457.014 200.191 456.883 199.304 456.883 198.296V189.868H454.615V187.936L457.023 187.796L457.303 183.512H459.431V187.796H463.575V189.868H459.431V198.38C459.431 199.295 459.599 200.013 459.935 200.536C460.29 201.04 460.906 201.292 461.783 201.292C462.063 201.292 462.362 201.255 462.679 201.18C462.997 201.087 463.277 200.984 463.519 200.872L464.023 202.804C463.594 202.953 463.137 203.084 462.651 203.196C462.166 203.308 461.681 203.364 461.195 203.364ZM472.406 203.364C471.174 203.364 470.017 203.056 468.934 202.44C467.851 201.805 466.983 200.9 466.33 199.724C465.695 198.529 465.378 197.092 465.378 195.412C465.378 193.713 465.695 192.276 466.33 191.1C466.983 189.905 467.851 188.991 468.934 188.356C470.017 187.721 471.174 187.404 472.406 187.404C473.339 187.404 474.226 187.581 475.066 187.936C475.925 188.291 476.681 188.813 477.334 189.504C477.987 190.195 478.501 191.035 478.874 192.024C479.247 193.013 479.434 194.143 479.434 195.412C479.434 197.092 479.107 198.529 478.454 199.724C477.801 200.9 476.942 201.805 475.878 202.44C474.814 203.056 473.657 203.364 472.406 203.364ZM472.406 201.236C473.283 201.236 474.049 200.993 474.702 200.508C475.374 200.023 475.897 199.341 476.27 198.464C476.643 197.587 476.83 196.569 476.83 195.412C476.83 194.236 476.643 193.209 476.27 192.332C475.897 191.455 475.374 190.773 474.702 190.288C474.049 189.803 473.283 189.56 472.406 189.56C471.529 189.56 470.754 189.803 470.082 190.288C469.429 190.773 468.915 191.455 468.542 192.332C468.187 193.209 468.01 194.236 468.01 195.412C468.01 196.569 468.187 197.587 468.542 198.464C468.915 199.341 469.429 200.023 470.082 200.508C470.754 200.993 471.529 201.236 472.406 201.236ZM489.47 203.364C488.126 203.364 486.913 203.056 485.83 202.44C484.766 201.805 483.917 200.9 483.282 199.724C482.666 198.529 482.358 197.092 482.358 195.412C482.358 193.713 482.694 192.276 483.366 191.1C484.038 189.905 484.934 188.991 486.054 188.356C487.174 187.721 488.378 187.404 489.666 187.404C490.656 187.404 491.505 187.581 492.214 187.936C492.942 188.291 493.568 188.711 494.09 189.196L492.802 190.876C492.373 190.484 491.906 190.167 491.402 189.924C490.917 189.681 490.376 189.56 489.778 189.56C488.864 189.56 488.042 189.803 487.314 190.288C486.586 190.773 486.017 191.455 485.606 192.332C485.196 193.209 484.99 194.236 484.99 195.412C484.99 196.569 485.186 197.587 485.578 198.464C485.989 199.341 486.54 200.023 487.23 200.508C487.94 200.993 488.761 201.236 489.694 201.236C490.404 201.236 491.057 201.096 491.654 200.816C492.252 200.517 492.793 200.153 493.278 199.724L494.398 201.46C493.708 202.057 492.942 202.524 492.102 202.86C491.262 203.196 490.385 203.364 489.47 203.364ZM497.752 203V180.712H500.272V195.804H500.384L506.824 187.796H509.68L504.612 193.928L510.352 203H507.58L503.128 195.664L500.272 198.996V203H497.752ZM519.715 203V182.476H531.531V184.66H522.291V191.604H530.131V193.788H522.291V203H519.715ZM540.328 203.364C539.096 203.364 537.938 203.056 536.856 202.44C535.773 201.805 534.905 200.9 534.252 199.724C533.617 198.529 533.3 197.092 533.3 195.412C533.3 193.713 533.617 192.276 534.252 191.1C534.905 189.905 535.773 188.991 536.856 188.356C537.938 187.721 539.096 187.404 540.328 187.404C541.261 187.404 542.148 187.581 542.988 187.936C543.846 188.291 544.602 188.813 545.256 189.504C545.909 190.195 546.422 191.035 546.796 192.024C547.169 193.013 547.356 194.143 547.356 195.412C547.356 197.092 547.029 198.529 546.376 199.724C545.722 200.9 544.864 201.805 543.8 202.44C542.736 203.056 541.578 203.364 540.328 203.364ZM540.328 201.236C541.205 201.236 541.97 200.993 542.624 200.508C543.296 200.023 543.818 199.341 544.192 198.464C544.565 197.587 544.752 196.569 544.752 195.412C544.752 194.236 544.565 193.209 544.192 192.332C543.818 191.455 543.296 190.773 542.624 190.288C541.97 189.803 541.205 189.56 540.328 189.56C539.45 189.56 538.676 189.803 538.004 190.288C537.35 190.773 536.837 191.455 536.464 192.332C536.109 193.209 535.932 194.236 535.932 195.412C535.932 196.569 536.109 197.587 536.464 198.464C536.837 199.341 537.35 200.023 538.004 200.508C538.676 200.993 539.45 201.236 540.328 201.236ZM551.4 203V187.796H553.5L553.752 190.568H553.808C554.331 189.597 554.966 188.832 555.712 188.272C556.478 187.693 557.28 187.404 558.12 187.404C558.475 187.404 558.774 187.432 559.016 187.488C559.278 187.525 559.52 187.609 559.744 187.74L559.268 189.952C559.007 189.877 558.774 189.821 558.568 189.784C558.363 189.728 558.102 189.7 557.784 189.7C557.168 189.7 556.506 189.971 555.796 190.512C555.087 191.035 554.48 191.94 553.976 193.228V203H551.4ZM568.033 203.364C566.67 203.364 565.438 203.047 564.337 202.412C563.236 201.777 562.358 200.872 561.705 199.696C561.07 198.501 560.753 197.073 560.753 195.412C560.753 194.161 560.94 193.051 561.313 192.08C561.686 191.091 562.19 190.251 562.825 189.56C563.478 188.851 564.216 188.319 565.037 187.964C565.858 187.591 566.698 187.404 567.557 187.404C568.864 187.404 569.965 187.693 570.861 188.272C571.757 188.851 572.438 189.681 572.905 190.764C573.39 191.828 573.633 193.088 573.633 194.544C573.633 194.824 573.624 195.085 573.605 195.328C573.586 195.571 573.558 195.795 573.521 196H563.273C563.329 197.083 563.572 198.025 564.001 198.828C564.449 199.612 565.037 200.228 565.765 200.676C566.493 201.105 567.342 201.32 568.313 201.32C569.06 201.32 569.732 201.217 570.329 201.012C570.945 200.788 571.542 200.489 572.121 200.116L573.017 201.824C572.364 202.253 571.626 202.617 570.805 202.916C569.984 203.215 569.06 203.364 568.033 203.364ZM563.245 194.18H571.393C571.393 192.649 571.057 191.483 570.385 190.68C569.732 189.859 568.808 189.448 567.613 189.448C566.904 189.448 566.232 189.635 565.597 190.008C564.981 190.381 564.458 190.913 564.029 191.604C563.618 192.295 563.357 193.153 563.245 194.18ZM583.369 203.364C582.025 203.364 580.811 203.056 579.729 202.44C578.665 201.805 577.815 200.9 577.181 199.724C576.565 198.529 576.257 197.092 576.257 195.412C576.257 193.713 576.593 192.276 577.265 191.1C577.937 189.905 578.833 188.991 579.953 188.356C581.073 187.721 582.277 187.404 583.565 187.404C584.554 187.404 585.403 187.581 586.113 187.936C586.841 188.291 587.466 188.711 587.989 189.196L586.701 190.876C586.271 190.484 585.805 190.167 585.301 189.924C584.815 189.681 584.274 189.56 583.677 189.56C582.762 189.56 581.941 189.803 581.213 190.288C580.485 190.773 579.915 191.455 579.505 192.332C579.094 193.209 578.889 194.236 578.889 195.412C578.889 196.569 579.085 197.587 579.477 198.464C579.887 199.341 580.438 200.023 581.129 200.508C581.838 200.993 582.659 201.236 583.593 201.236C584.302 201.236 584.955 201.096 585.553 200.816C586.15 200.517 586.691 200.153 587.177 199.724L588.297 201.46C587.606 202.057 586.841 202.524 586.001 202.86C585.161 203.196 584.283 203.364 583.369 203.364ZM594.767 203.364C593.927 203.364 593.171 203.196 592.499 202.86C591.827 202.524 591.295 202.039 590.903 201.404C590.53 200.751 590.343 199.967 590.343 199.052C590.343 197.391 591.081 196.121 592.555 195.244C594.049 194.348 596.419 193.723 599.667 193.368C599.667 192.715 599.574 192.099 599.387 191.52C599.219 190.923 598.911 190.447 598.463 190.092C598.015 189.719 597.371 189.532 596.531 189.532C595.654 189.532 594.823 189.709 594.039 190.064C593.274 190.4 592.583 190.764 591.967 191.156L590.987 189.392C591.454 189.093 591.995 188.795 592.611 188.496C593.227 188.179 593.899 187.917 594.627 187.712C595.355 187.507 596.13 187.404 596.951 187.404C598.183 187.404 599.182 187.665 599.947 188.188C600.731 188.711 601.301 189.439 601.655 190.372C602.029 191.287 602.215 192.379 602.215 193.648V203H600.115L599.891 201.18H599.807C599.098 201.777 598.314 202.291 597.455 202.72C596.615 203.149 595.719 203.364 594.767 203.364ZM595.495 201.292C596.223 201.292 596.914 201.124 597.567 200.788C598.239 200.452 598.939 199.957 599.667 199.304V195.076C597.969 195.263 596.615 195.533 595.607 195.888C594.599 196.224 593.881 196.644 593.451 197.148C593.022 197.633 592.807 198.212 592.807 198.884C592.807 199.761 593.069 200.387 593.591 200.76C594.114 201.115 594.749 201.292 595.495 201.292ZM611.021 203.364C609.957 203.364 608.921 203.168 607.913 202.776C606.923 202.365 606.074 201.861 605.365 201.264L606.597 199.556C607.269 200.097 607.959 200.536 608.669 200.872C609.378 201.208 610.19 201.376 611.105 201.376C612.113 201.376 612.859 201.152 613.345 200.704C613.849 200.237 614.101 199.668 614.101 198.996C614.101 198.473 613.923 198.044 613.569 197.708C613.233 197.353 612.794 197.055 612.253 196.812C611.73 196.551 611.189 196.317 610.629 196.112C609.919 195.832 609.219 195.524 608.529 195.188C607.857 194.833 607.297 194.385 606.849 193.844C606.419 193.284 606.205 192.575 606.205 191.716C606.205 190.895 606.41 190.167 606.821 189.532C607.231 188.879 607.829 188.365 608.613 187.992C609.397 187.6 610.339 187.404 611.441 187.404C612.374 187.404 613.242 187.572 614.045 187.908C614.866 188.244 615.566 188.655 616.145 189.14L614.913 190.736C614.39 190.363 613.849 190.045 613.289 189.784C612.747 189.523 612.141 189.392 611.469 189.392C610.498 189.392 609.779 189.616 609.313 190.064C608.865 190.493 608.641 191.007 608.641 191.604C608.641 192.071 608.79 192.463 609.089 192.78C609.406 193.097 609.817 193.368 610.321 193.592C610.825 193.797 611.357 194.012 611.917 194.236C612.477 194.441 613.027 194.665 613.569 194.908C614.129 195.151 614.623 195.44 615.053 195.776C615.501 196.112 615.855 196.532 616.117 197.036C616.397 197.521 616.537 198.128 616.537 198.856C616.537 199.677 616.322 200.433 615.893 201.124C615.482 201.815 614.866 202.365 614.045 202.776C613.242 203.168 612.234 203.364 611.021 203.364ZM624.191 203.364C623.127 203.364 622.278 203.159 621.643 202.748C621.009 202.319 620.551 201.721 620.271 200.956C620.01 200.191 619.879 199.304 619.879 198.296V189.868H617.611V187.936L620.019 187.796L620.299 183.512H622.427V187.796H626.571V189.868H622.427V198.38C622.427 199.295 622.595 200.013 622.931 200.536C623.286 201.04 623.902 201.292 624.779 201.292C625.059 201.292 625.358 201.255 625.675 201.18C625.993 201.087 626.273 200.984 626.515 200.872L627.019 202.804C626.59 202.953 626.133 203.084 625.647 203.196C625.162 203.308 624.677 203.364 624.191 203.364ZM636.5 203V182.476H641.624C643.733 182.476 645.507 182.877 646.944 183.68C648.381 184.464 649.464 185.612 650.192 187.124C650.92 188.636 651.284 190.484 651.284 192.668C651.284 194.833 650.92 196.691 650.192 198.24C649.464 199.789 648.391 200.975 646.972 201.796C645.553 202.599 643.808 203 641.736 203H636.5ZM639.076 200.872H641.4C643.005 200.872 644.34 200.555 645.404 199.92C646.487 199.267 647.289 198.324 647.812 197.092C648.353 195.86 648.624 194.385 648.624 192.668C648.624 190.913 648.353 189.439 647.812 188.244C647.289 187.049 646.487 186.144 645.404 185.528C644.34 184.893 643.005 184.576 641.4 184.576H639.076V200.872ZM659.025 203.364C658.185 203.364 657.429 203.196 656.757 202.86C656.085 202.524 655.553 202.039 655.161 201.404C654.788 200.751 654.601 199.967 654.601 199.052C654.601 197.391 655.339 196.121 656.813 195.244C658.307 194.348 660.677 193.723 663.925 193.368C663.925 192.715 663.832 192.099 663.645 191.52C663.477 190.923 663.169 190.447 662.721 190.092C662.273 189.719 661.629 189.532 660.789 189.532C659.912 189.532 659.081 189.709 658.297 190.064C657.532 190.4 656.841 190.764 656.225 191.156L655.245 189.392C655.712 189.093 656.253 188.795 656.869 188.496C657.485 188.179 658.157 187.917 658.885 187.712C659.613 187.507 660.388 187.404 661.209 187.404C662.441 187.404 663.44 187.665 664.205 188.188C664.989 188.711 665.559 189.439 665.913 190.372C666.287 191.287 666.473 192.379 666.473 193.648V203H664.373L664.149 201.18H664.065C663.356 201.777 662.572 202.291 661.713 202.72C660.873 203.149 659.977 203.364 659.025 203.364ZM659.753 201.292C660.481 201.292 661.172 201.124 661.825 200.788C662.497 200.452 663.197 199.957 663.925 199.304V195.076C662.227 195.263 660.873 195.533 659.865 195.888C658.857 196.224 658.139 196.644 657.709 197.148C657.28 197.633 657.065 198.212 657.065 198.884C657.065 199.761 657.327 200.387 657.849 200.76C658.372 201.115 659.007 201.292 659.753 201.292ZM675.279 203.364C674.215 203.364 673.179 203.168 672.171 202.776C671.181 202.365 670.332 201.861 669.623 201.264L670.855 199.556C671.527 200.097 672.217 200.536 672.927 200.872C673.636 201.208 674.448 201.376 675.363 201.376C676.371 201.376 677.117 201.152 677.603 200.704C678.107 200.237 678.359 199.668 678.359 198.996C678.359 198.473 678.181 198.044 677.827 197.708C677.491 197.353 677.052 197.055 676.511 196.812C675.988 196.551 675.447 196.317 674.887 196.112C674.177 195.832 673.477 195.524 672.787 195.188C672.115 194.833 671.555 194.385 671.107 193.844C670.677 193.284 670.463 192.575 670.463 191.716C670.463 190.895 670.668 190.167 671.079 189.532C671.489 188.879 672.087 188.365 672.871 187.992C673.655 187.6 674.597 187.404 675.699 187.404C676.632 187.404 677.5 187.572 678.303 187.908C679.124 188.244 679.824 188.655 680.403 189.14L679.171 190.736C678.648 190.363 678.107 190.045 677.547 189.784C677.005 189.523 676.399 189.392 675.727 189.392C674.756 189.392 674.037 189.616 673.571 190.064C673.123 190.493 672.899 191.007 672.899 191.604C672.899 192.071 673.048 192.463 673.347 192.78C673.664 193.097 674.075 193.368 674.579 193.592C675.083 193.797 675.615 194.012 676.175 194.236C676.735 194.441 677.285 194.665 677.827 194.908C678.387 195.151 678.881 195.44 679.311 195.776C679.759 196.112 680.113 196.532 680.375 197.036C680.655 197.521 680.795 198.128 680.795 198.856C680.795 199.677 680.58 200.433 680.151 201.124C679.74 201.815 679.124 202.365 678.303 202.776C677.5 203.168 676.492 203.364 675.279 203.364ZM684.4 203V180.712H686.976V186.816L686.864 189.952C687.574 189.243 688.33 188.645 689.132 188.16C689.935 187.656 690.859 187.404 691.904 187.404C693.51 187.404 694.686 187.917 695.432 188.944C696.179 189.952 696.552 191.427 696.552 193.368V203H694.004V193.704C694.004 192.267 693.771 191.231 693.304 190.596C692.856 189.961 692.128 189.644 691.12 189.644C690.336 189.644 689.636 189.84 689.02 190.232C688.404 190.624 687.723 191.203 686.976 191.968V203H684.4ZM708.1 203.364C707.409 203.364 706.681 203.196 705.916 202.86C705.151 202.524 704.441 202.048 703.788 201.432H703.676L703.452 203H701.408V180.712H703.984V186.816L703.872 189.532C704.563 188.935 705.319 188.431 706.14 188.02C706.961 187.609 707.801 187.404 708.66 187.404C709.967 187.404 711.068 187.731 711.964 188.384C712.86 189.019 713.541 189.915 714.008 191.072C714.475 192.229 714.708 193.592 714.708 195.16C714.708 196.877 714.391 198.352 713.756 199.584C713.14 200.816 712.328 201.759 711.32 202.412C710.331 203.047 709.257 203.364 708.1 203.364ZM707.68 201.208C708.52 201.208 709.267 200.975 709.92 200.508C710.592 200.023 711.115 199.332 711.488 198.436C711.861 197.521 712.048 196.439 712.048 195.188C712.048 194.068 711.908 193.088 711.628 192.248C711.367 191.389 710.947 190.727 710.368 190.26C709.789 189.793 709.005 189.56 708.016 189.56C707.381 189.56 706.728 189.737 706.056 190.092C705.384 190.447 704.693 190.96 703.984 191.632V199.64C704.637 200.219 705.291 200.629 705.944 200.872C706.616 201.096 707.195 201.208 707.68 201.208ZM724.625 203.364C723.393 203.364 722.235 203.056 721.153 202.44C720.07 201.805 719.202 200.9 718.549 199.724C717.914 198.529 717.597 197.092 717.597 195.412C717.597 193.713 717.914 192.276 718.549 191.1C719.202 189.905 720.07 188.991 721.153 188.356C722.235 187.721 723.393 187.404 724.625 187.404C725.558 187.404 726.445 187.581 727.285 187.936C728.143 188.291 728.899 188.813 729.553 189.504C730.206 190.195 730.719 191.035 731.093 192.024C731.466 193.013 731.653 194.143 731.653 195.412C731.653 197.092 731.326 198.529 730.673 199.724C730.019 200.9 729.161 201.805 728.097 202.44C727.033 203.056 725.875 203.364 724.625 203.364ZM724.625 201.236C725.502 201.236 726.267 200.993 726.921 200.508C727.593 200.023 728.115 199.341 728.489 198.464C728.862 197.587 729.049 196.569 729.049 195.412C729.049 194.236 728.862 193.209 728.489 192.332C728.115 191.455 727.593 190.773 726.921 190.288C726.267 189.803 725.502 189.56 724.625 189.56C723.747 189.56 722.973 189.803 722.301 190.288C721.647 190.773 721.134 191.455 720.761 192.332C720.406 193.209 720.229 194.236 720.229 195.412C720.229 196.569 720.406 197.587 720.761 198.464C721.134 199.341 721.647 200.023 722.301 200.508C722.973 200.993 723.747 201.236 724.625 201.236ZM738.678 203.364C737.838 203.364 737.082 203.196 736.41 202.86C735.738 202.524 735.206 202.039 734.814 201.404C734.44 200.751 734.254 199.967 734.254 199.052C734.254 197.391 734.991 196.121 736.466 195.244C737.959 194.348 740.33 193.723 743.578 193.368C743.578 192.715 743.484 192.099 743.298 191.52C743.13 190.923 742.822 190.447 742.374 190.092C741.926 189.719 741.282 189.532 740.442 189.532C739.564 189.532 738.734 189.709 737.95 190.064C737.184 190.4 736.494 190.764 735.878 191.156L734.898 189.392C735.364 189.093 735.906 188.795 736.522 188.496C737.138 188.179 737.81 187.917 738.538 187.712C739.266 187.507 740.04 187.404 740.862 187.404C742.094 187.404 743.092 187.665 743.858 188.188C744.642 188.711 745.211 189.439 745.566 190.372C745.939 191.287 746.126 192.379 746.126 193.648V203H744.026L743.802 201.18H743.718C743.008 201.777 742.224 202.291 741.366 202.72C740.526 203.149 739.63 203.364 738.678 203.364ZM739.406 201.292C740.134 201.292 740.824 201.124 741.478 200.788C742.15 200.452 742.85 199.957 743.578 199.304V195.076C741.879 195.263 740.526 195.533 739.518 195.888C738.51 196.224 737.791 196.644 737.362 197.148C736.932 197.633 736.718 198.212 736.718 198.884C736.718 199.761 736.979 200.387 737.502 200.76C738.024 201.115 738.659 201.292 739.406 201.292ZM750.955 203V187.796H753.055L753.307 190.568H753.363C753.886 189.597 754.52 188.832 755.267 188.272C756.032 187.693 756.835 187.404 757.675 187.404C758.03 187.404 758.328 187.432 758.571 187.488C758.832 187.525 759.075 187.609 759.299 187.74L758.823 189.952C758.562 189.877 758.328 189.821 758.123 189.784C757.918 189.728 757.656 189.7 757.339 189.7C756.723 189.7 756.06 189.971 755.351 190.512C754.642 191.035 754.035 191.94 753.531 193.228V203H750.955ZM766.608 203.364C765.338 203.364 764.228 203.056 763.276 202.44C762.342 201.824 761.614 200.928 761.092 199.752C760.588 198.557 760.336 197.111 760.336 195.412C760.336 193.769 760.644 192.351 761.26 191.156C761.876 189.961 762.678 189.037 763.668 188.384C764.676 187.731 765.758 187.404 766.916 187.404C767.812 187.404 768.577 187.563 769.212 187.88C769.865 188.179 770.528 188.608 771.2 189.168L771.06 186.564V180.712H773.636V203H771.536L771.312 201.208H771.228C770.63 201.805 769.94 202.319 769.156 202.748C768.372 203.159 767.522 203.364 766.608 203.364ZM767.168 201.208C767.877 201.208 768.549 201.04 769.184 200.704C769.818 200.349 770.444 199.827 771.06 199.136V191.156C770.425 190.577 769.809 190.167 769.212 189.924C768.614 189.681 767.998 189.56 767.364 189.56C766.561 189.56 765.824 189.812 765.152 190.316C764.498 190.801 763.966 191.483 763.556 192.36C763.164 193.219 762.968 194.227 762.968 195.384C762.968 196.597 763.136 197.643 763.472 198.52C763.808 199.397 764.284 200.069 764.9 200.536C765.534 200.984 766.29 201.208 767.168 201.208Z" fill="#EDEDED"/>
<path d="M16 212L88 152L128 172L208 92L304 60" stroke="#C026D3" stroke-width="10" stroke-linecap="round" stroke-linejoin="round"/>
<path d="M240 28V132" stroke="#A78BFA" stroke-width="10" stroke-linecap="round" stroke-linejoin="round"/>
<path d="M252 60H228C221.373 60 216 65.3726 216 72V120C216 126.627 221.373 132 228 132H252C258.627 132 264 126.627 264 120V72C264 65.3726 258.627 60 252 60Z" stroke="#A78BFA" stroke-width="10" stroke-linecap="round" stroke-linejoin="round"/>
</svg>
